<svg xmlns="http://www.w3.org/2000/svg" version="1.1" xmlns:xlink="http://www.w3.org/1999/xlink" xmlns:svgjs="http://svgjs.com/svgjs" width="1440" height="560" preserveAspectRatio="none" viewBox="0 0 1440 560"><g mask="url(&quot;#SvgjsMask1001&quot;)" fill="none"><rect width="1440" height="560" x="0" y="0" fill="#1e3266"></rect><path d="M1560 560L0 560 L0 328.17Q26.91 283.08, 72 309.98Q101.73 267.71, 144 297.43Q208.5 289.94, 216 354.44Q255.94 274.38, 336 314.33Q361.86 268.19, 408 294.05Q505.61 271.66, 528 369.28Q557.13 326.4, 600 355.53Q635.83 271.36, 720 307.19Q764.71 279.9, 792 324.61Q857.13 269.74, 912 334.87Q957.39 308.26, 984 353.65Q999.43 297.07, 1056 312.5Q1102.45 238.95, 1176 285.4Q1233.99 271.38, 1248 329.37Q1302.55 263.92, 1368 318.47Q1395.4 273.88, 1440 301.28Q1521.31 262.58, 1560 343.89z" fill="#182f5d"></path><path d="M1488 560L0 560 L0 415.85Q51.8 347.65, 120 399.46Q179.92 387.38, 192 447.29Q207.15 342.44, 312 357.59Q353.1 326.69, 384 367.79Q445.46 357.25, 456 418.72Q498.67 389.39, 528 432.06Q565.9 349.96, 648 387.86Q736.58 356.44, 768 445.03Q819.43 376.46, 888 427.89Q910.55 378.44, 960 400.98Q980.26 349.24, 1032 369.5Q1059.04 324.54, 1104 351.58Q1161.09 336.66, 1176 393.75Q1246.37 344.12, 1296 414.49Q1302.59 349.08, 1368 355.67Q1435.76 303.43, 1488 371.18z" fill="#25467d"></path><path d="M1488 560L0 560 L0 436.12Q79.52 395.64, 120 475.17Q129.61 412.78, 192 422.39Q260.71 371.1, 312 439.8Q379.6 387.4, 432 455.01Q498.42 401.43, 552 467.85Q596.7 392.55, 672 437.25Q741.63 386.88, 792 456.52Q873.86 418.38, 912 500.24Q955.59 471.82, 984 515.41Q998.35 409.76, 1104 424.11Q1176.36 376.47, 1224 448.83Q1277.09 429.92, 1296 483.01Q1323.47 438.48, 1368 465.95Q1452.87 430.81, 1488 515.68z" fill="#356cb1"></path><path d="M1464 560L0 560 L0 494.52Q72.36 446.88, 120 519.23Q165.44 492.67, 192 538.12Q234.74 460.86, 312 503.6Q371.62 491.22, 384 550.84Q458.13 504.97, 504 579.1Q519.38 522.48, 576 537.85Q620.49 462.34, 696 506.82Q740.44 479.26, 768 523.71Q843.06 478.77, 888 553.83Q963.94 509.77, 1008 585.7Q1017.03 522.74, 1080 531.77Q1123.87 455.64, 1200 499.51Q1283.49 463, 1320 546.48Q1368.09 522.57, 1392 570.65Q1403.85 510.5, 1464 522.35z" fill="white"></path></g><defs><mask id="SvgjsMask1001"><rect width="1440" height="560" fill="#ffffff"></rect></mask></defs></svg>